<svg viewBox="0 0 454.9 123.8">
<g id="XMLID_2_">
	<g id="XMLID_3_">
		<path id="XMLID_4_" d="M25.6,26.9H15.5v38H6.3v-38H0V20h6.3v-9h0.1c-0.1-0.2-0.1-0.3-0.1-0.4c0-6.1,6-10.3,12.2-10.6
			c6.8-0.2,9.1,3,10.7,4.5l-5,6.1c-2.1-2.3-4.5-2.1-5.7-1.8c-1.7,0.4-3.1,2-3.1,4.6V20h10.2V26.9z"/>
		<path id="XMLID_6_" d="M44.1,20.4v44.4H35V20.4H44.1z M43.8,10.4h-8.5V2h8.5V10.4z"/>
		<path id="XMLID_9_" d="M77.6,26.9H67.4v38h-9.2v-38h-6.3V20h6.3v-9h0.1c-0.1-0.2-0.1-0.3-0.1-0.4c0-6.1,6-10.3,12.2-10.6
			c6.8-0.2,9.1,3,10.7,4.5l-5,6.1c-2.1-2.3-4.5-2.1-5.7-1.8c-1.7,0.4-3.1,2-3.1,4.6V20h10.2V26.9z"/>
		<path id="XMLID_11_" d="M117.4,28.4H106V65h-9.1V28.4H85V20h12V1.9h9.1V20h11.3V28.4z"/>
		<path id="XMLID_13_" d="M164.1,49.9c-4.3,10.5-13.1,15.7-22.3,15.7c-12.8,0-23-10.5-23-23.2c0-12.8,10.3-23.3,23-23.3
			c12.7,0,22.9,10.5,22.9,23.3c0,0.8,0,1.8-0.1,2.5h-8.3h-4.6h-24.2c1.2,6.9,6.9,12.3,14.2,12.3c5.6,0,10.4-2.7,12.8-7.4
			C156.4,49.9,161.7,49.9,164.1,49.9z M127.8,38.2h1.5h23.8h2.7c-0.3-0.7-0.7-1.4-1-2.2c-2.3-4.9-7.2-8.6-13-8.6
			c-6.1,0-11.1,3.9-13.3,9.1C128.2,37.1,127.9,37.6,127.8,38.2z"/>
		<path id="XMLID_16_" d="M214.3,49.9C210,60.4,201.2,65.6,192,65.6c-12.8,0-23-10.5-23-23.2c0-12.8,10.3-23.3,23-23.3
			c12.7,0,22.9,10.5,22.9,23.3c0,0.8,0,1.8-0.1,2.5h-8.3H202h-24.2c1.2,6.9,6.9,12.3,14.2,12.3c5.6,0,10.4-2.7,12.8-7.4
			C206.6,49.9,211.9,49.9,214.3,49.9z M178.1,38.2h1.5h23.8h2.7c-0.3-0.7-0.7-1.4-1-2.2c-2.3-4.9-7.2-8.6-13-8.6
			c-6.1,0-11.1,3.9-13.3,9.1C178.4,37.1,178.1,37.6,178.1,38.2z"/>
		<path id="XMLID_19_" d="M228,64.9h-9.3v-45h9.3v3.3l-0.2,2.5c0.6-0.6,1.4-1.7,2-2.2c3.3-2.7,7.3-4,11.8-4
			c15.9,0,23.6,10.3,23.6,22.8v22.6h-9.3v-5.3V42.3c0-8-4.7-13.9-13.8-13.9c-7.9,0-14.1,5.9-14.1,13.9V64.9z"/>
	</g>
	<g id="XMLID_1_">
		<path id="XMLID_21_" d="M288,60.7l-0.2,3c-1.3,15.1-3.6,40.1-8.5,52.2c-1.3,3.2-4.2,7.9-8.3,7.9c-5.5,0-6.6-8.4-6.6-12.4
			c0-18,7.7-42.5,13.4-59.8c0.5-1.4,0.6-4.8,2.4-23.2c0.2-2.9-0.1-9.4,4.1-9.4c3.2,0,6.1,4.4,6.1,7.3c0,2.8-0.6,5.5-0.8,8.3
			c4.2-5.6,13.3-16.7,21-16.7s9.8,6.7,9.8,13.2c0,8.6-4.2,21.5-10.6,27.6c-1.6,1.6-3.5,2.9-5.6,3.2c1.2,0.2,2.4,0.4,3.6,0.4
			c11.2,0,21.1-9,26.3-18.2c0.6-1,1.3-3,2.8-3c1.3,0,2,0.8,2,2.2c0,1.4-0.4,2.3-1.1,3.4c-7.1,11.6-16.9,20.2-31,20.2
			C301.2,66.9,291.5,65.7,288,60.7z M269.5,112c0,1,0,5.4,1.4,5.4c2,0,3.8-11.6,4.1-13.2c2.2-13.6,3.5-27.4,4.3-41
			C274.6,74.7,269.5,99.6,269.5,112z M288.4,57.1c0.2-0.2,0.5-0.4,0.8-0.4c1.4,0,2.5,1.7,5.9,1.7c9.7,0,17.6-21.4,17.6-29.4
			c0-2.4-0.6-5.9-3.6-5.9c-5.5,0-16,13.6-18.6,18.4c-1,1.6-1.8,11.6-2.2,15V57.1z"/>
		<path id="XMLID_25_" d="M332.9,50.1c0-10.8,8.8-33.7,21.7-33.7c4.3,0,6.7,3,6.7,7.2c0,8-11.3,20.8-18.6,23.4
			c-0.4,1.7-0.6,3.4-0.6,5c0,5.4,2.2,8.8,7.8,8.8c10.1,0,18.1-8.6,22.9-16.7c0.7-1.2,1.9-3.1,3.6-3.1c0.7,0,1.7,0.5,1.7,1.3
			c0,1.6-0.4,2.3-1.1,3.6c-6.2,10.9-17.8,20.5-30.8,20.5C336.7,66.5,332.9,58.7,332.9,50.1z M343.1,42.5c5.2-3.1,13-11.3,13-17.6
			c0-1.3-0.5-2.8-2-2.8C349.2,22.1,343.8,38.3,343.1,42.5z"/>
		<path id="XMLID_28_" d="M370.4,66.2c0-11.8,3.1-24.7,5.5-36.2c0.7-3.7,1.3-7.6,2.2-11.3c0.6-2.9,4-5.8,7-5.8
			c2.8,0,3.6,1.6,3.6,4.1c0,4.1-1.7,9-3.1,12.8c-1.7,4.4-2.6,9.1-3.2,13.8c0,0,14.6-21.4,20.9-21.4c4.7,0,4.8,8.2,4.8,11.6v16.8
			c0,2.8,0.1,7.2,3.8,7.2c6.4,0,13.8-11.3,16.6-16.6c0.6-1.1,1.6-2.8,2.9-2.8c1.2,0,2,1.3,2,2.4c0,0.6-0.6,1.8-0.8,2.4
			c-3.5,7.4-14,20.4-23,20.4c-7.4,0-8.8-8-8.8-14c0-0.6,0-1.2,0-1.8l0.5-13.7c0-0.6-0.1-2.4-1.1-2.4c-0.8,0-2.2,1.3-2.8,1.9
			c-4,3.8-7.6,9.4-10.4,14c-3.5,5.6-6.2,11.5-9,17.5c-1,1.9-2.6,3.8-4.9,3.8C371.3,69.2,370.4,67.8,370.4,66.2z"/>
		<path id="XMLID_30_" d="M454.9,54.3c0,3.2-0.8,6.5-2.8,9.2c-2,2.5-4.2,6.9-13,7.7c-4.5,0.4-10.7-0.6-14.2-4
			c-0.7-0.7-1.3-1.6-1.3-2.6c0-1.2,0.8-1.8,1.9-1.8c1,0,2.4,1.1,2.2,0.8c2.5,1.9,5.4,2.3,8.5,2.3c6.4,0,9.7-4.3,9.7-10.4
			c0-7.2-4.4-17.4-8.4-23.3c-2.3,6.5-7,16.3-11.8,21.1c-0.7,0.7-1.9,1.9-3.1,1.9c-1,0-1.7-0.7-1.7-1.7c0-1.2,0.7-2.2,1.4-3.1
			c5.4-6.7,9.6-14.6,12.2-22.9c-0.7-2-1.1-4.2-1.1-6.4c0-4.7,3.1-14,8.9-14c3,0,3.8,4.1,3.8,6.5c0,4-1.3,8.2-2.8,11.9
			C447.5,34.8,454.9,44,454.9,54.3z"/>
	</g>
</g>
</svg>
